<?xml version="1.0" encoding="UTF-8" standalone="no"?>
<!-- Created with Inkscape (http://www.inkscape.org/) -->

<svg
   width="106.92936mm"
   height="43.435478mm"
   viewBox="0 0 106.92936 43.435477"
   version="1.1"
   id="svg1"
   xml:space="preserve"
   xmlns="http://www.w3.org/2000/svg"
   xmlns:svg="http://www.w3.org/2000/svg"><defs
     id="defs1" /><g
     id="layer1"
     transform="translate(-51.307832,-130.3547)"><g
       id="g1"><g
         id="g11"
         style="fill:#1a1a1a"
         transform="matrix(0.18787744,0,0,0.16552797,47.919669,128.48165)"><g
           id="g3"
           transform="matrix(0.8506341,0,0,1,16.682483,1.0607812)"
           style="fill:#1a1a1a"><path
             style="opacity:0.929368;fill:#1a1a1a;stroke:#000000;stroke-width:0;stroke-linecap:round;stroke-linejoin:bevel;paint-order:markers fill stroke"
             d="m 134.68604,130.08139 c -3.45348,-1.37043 -9.37375,-3.23421 -13.5947,-4.27574 -4.22096,-1.04153 -6.7425,-1.2608 -10.47012,-0.76743 -3.72763,0.49336 -8.66109,1.69932 -12.224233,2.90531 -3.563144,1.20599 -5.755793,2.41195 -8.003324,3.89204 -2.247531,1.48008 -4.549812,3.2342 -6.029885,4.65946 -1.480073,1.42526 -2.137866,2.52158 -1.315584,2.30229 0.822282,-0.21928 3.124562,-1.75413 4.933546,-2.52157 1.808984,-0.76744 3.124572,-0.76744 4.549836,-0.71262 1.425264,0.0548 2.960117,0.16445 4.440197,0.38372 1.480081,0.21927 2.905302,0.54817 4.714297,1.20598 1.80899,0.65782 4.00164,1.64451 5.64617,2.35714 1.64452,0.71263 2.74085,1.15116 4.22093,1.64452 1.48009,0.49336 3.34384,1.04153 5.31728,1.42525 1.97344,0.38372 4.05646,0.60298 6.68772,0.38371 2.63126,-0.21928 5.8106,-0.87707 8.22258,-1.58971 2.41197,-0.71263 4.05646,-1.48006 5.48172,-2.19269 1.42526,-0.71263 2.63122,-1.37042 3.34384,-2.02824 0.71263,-0.65781 0.93189,-1.3156 0.76743,-1.97341 -0.16445,-0.65782 -0.71262,-1.31561 -1.48007,-2.08306 -0.76745,-0.76745 -1.75414,-1.64452 -5.20763,-3.01495 z"
             id="path1"
             transform="translate(-52.953493,19.076407)" /><path
             style="opacity:0.929368;fill:#1a1a1a;stroke:#000000;stroke-width:0;stroke-linecap:round;stroke-linejoin:bevel;paint-order:markers fill stroke"
             d="m 166.91861,194.93023 c 0.27408,0.21927 -0.603,-0.98671 -1.26081,-2.24752 -0.65781,-1.26081 -1.09634,-2.5764 -1.20597,-3.89203 -0.10964,-1.31563 0.10963,-2.63121 0.71263,-4.44021 0.603,-1.80899 1.58969,-4.11127 2.57641,-6.24917 0.98672,-2.13789 1.97341,-4.11127 2.52158,-5.42689 0.54818,-1.31562 0.65781,-1.97342 0.49336,-2.52159 -0.16446,-0.54818 -0.60299,-0.98671 -1.26081,-1.53489 -0.65781,-0.54818 -1.53487,-1.20597 -2.30232,-1.86379 -0.76745,-0.65781 -1.42524,-1.31561 -2.13787,-2.13787 -0.71263,-0.82227 -1.48006,-1.80896 -2.13787,-2.90532 -0.65782,-1.09636 -1.20598,-2.30231 -1.64452,-3.56313 -0.43854,-1.26081 -0.76744,-2.57639 -0.98671,-4.22093 -0.21927,-1.64454 -0.3289,-3.61792 -0.60299,-5.701 -0.2741,-2.08308 -0.71262,-4.27573 -1.20598,-6.68771 -0.49336,-2.41199 -1.04152,-5.04316 -1.5897,-8.2226 -0.54818,-3.17944 -1.09635,-6.90694 -2.02825,-10.68937 -0.93191,-3.78243 -2.2475,-7.61957 -3.89203,-11.01827 -1.64454,-3.3987 -3.61792,-6.35877 -5.86546,-9.26411 -2.24753,-2.90535 -4.76907,-5.755789 -7.72924,-9.154501 -2.96017,-3.398712 -6.35877,-7.345476 -9.26411,-10.524903 -2.90534,-3.179426 -5.31725,-5.591336 -8.88042,-8.441868 -3.56317,-2.850532 -8.27737,-6.139506 -12.33388,-9.318937 -4.05651,-3.179432 -7.455112,-6.249137 -10.579726,-8.935206 -3.124613,-2.686069 -5.975054,-4.988349 -9.318946,-7.838881 -3.343891,-2.850532 -7.181025,-6.249136 -10.744181,-8.880384 -3.563155,-2.631248 -6.852126,-4.494999 -9.64783,-6.249168 -2.795704,-1.754169 -5.097984,-3.398654 -5.152779,-2.357088 -0.05479,1.041566 2.137852,4.769065 3.946836,8.38704 1.808984,3.617975 3.234205,7.126213 4.769105,10.963463 1.5349,3.837251 3.179386,8.00328 4.49501,12.443526 1.315624,4.440247 2.302315,9.154439 3.014944,14.636228 0.712629,5.48179 1.151158,11.730836 1.425246,15.951788 0.274087,4.220952 0.383719,6.413599 0.602992,9.483401 0.219272,3.06981 0.548169,7.01658 0.931894,10.36046 0.383726,3.34388 0.822257,6.08469 1.58971,8.82558 0.767453,2.74089 1.863776,5.4817 3.014951,8.05813 1.151175,2.57644 2.35713,4.98835 4.056487,7.50997 1.699357,2.52162 3.892005,5.1528 6.961811,7.94851 3.069806,2.79571 7.016576,5.75579 11.018276,8.44186 4.0017,2.68607 8.0581,5.09798 11.01825,6.79733 2.96015,1.69934 4.8239,2.68603 7.29071,3.8372 2.4668,1.15118 5.53651,2.46677 8.2774,3.7824 2.74089,1.31563 5.1528,2.63122 7.45515,4.05648 2.30235,1.42527 4.49499,2.96012 6.0847,4.1661 1.58971,1.20599 2.5764,2.08305 3.23422,3.23423 0.65781,1.15118 0.98671,2.5764 1.15116,3.89202 0.16445,1.31563 0.16445,2.52159 1.09636,2.90531 0.93191,0.38371 2.79566,-0.0548 4.27574,-0.10963 1.48008,-0.0548 2.5764,0.27408 3.61794,1.20598 1.04154,0.93191 2.02823,2.46677 3.23422,4.05649 1.206,1.58971 2.63122,3.2342 2.90531,3.45347 z"
             id="path2"
             transform="matrix(0.8586676,0,0,0.83618569,-51.175702,-14.767704)" /><path
             style="opacity:0.929368;fill:#1a1a1a;stroke:#000000;stroke-width:0;stroke-linecap:round;stroke-linejoin:bevel;paint-order:markers fill stroke"
             d="m 195.20432,121.69435 c -0.49336,0 -2.13788,0.98671 -3.78242,1.91861 -1.64453,0.93191 -3.28901,1.80896 -5.81064,2.35714 -2.52163,0.54817 -5.92023,0.76744 -8.22257,1.69935 -2.30234,0.93191 -3.50829,2.5764 -4.54983,3.78238 -1.04154,1.20599 -1.9186,1.97342 -3.39868,2.57642 -1.48009,0.60299 -3.56311,1.04152 -5.3721,1.09633 -1.80898,0.0548 -3.34383,-0.27408 -5.37209,-0.0548 -2.02827,0.21928 -4.54981,0.98671 -7.01661,1.97343 -2.46681,0.98672 -4.87872,2.19268 -8.7708,3.67276 -3.89208,1.48009 -9.26406,3.2342 -15.18439,5.81065 -5.92033,2.57645 -12.38864,5.97505 -17.04814,8.71593 -4.6595,2.74089 -7.50994,4.8239 -15.294119,13.92373 -7.78418,9.09983 -20.501534,25.21579 -19.459858,29.76555 1.041676,4.54977 15.842047,-2.46671 23.626107,-5.97501 7.78406,-3.50831 8.55149,-3.50831 9.26412,-3.45349 0.71263,0.0548 1.37042,0.16445 2.08305,0.32891 0.71264,0.16445 1.48006,0.38371 2.57642,0.60298 1.09636,0.21927 2.52158,0.43854 4.16612,0.54817 1.64454,0.10964 3.50829,0.10964 7.12628,-0.82227 3.618,-0.93191 8.98998,-2.79566 12.44348,-4.27574 3.45351,-1.48008 4.98836,-2.5764 6.68771,-3.72758 1.69936,-1.15117 3.56311,-2.35713 5.31728,-3.5083 1.75417,-1.15118 3.39865,-2.2475 4.65946,-3.28904 1.26081,-1.04154 2.13787,-2.02823 2.79568,-2.8505 0.65781,-0.82226 1.09634,-1.48005 1.69934,-2.35714 0.603,-0.87709 1.37042,-1.97341 2.30233,-3.1794 0.9319,-1.206 2.02823,-2.52159 1.9734,-0.65775 -0.0548,1.86384 -1.26079,6.90693 -0.71259,8.33216 0.54819,1.42522 2.85047,-0.76742 4.87873,-3.61796 2.02825,-2.85053 3.78237,-6.35876 4.8239,-8.82556 1.04153,-2.46679 1.37043,-3.89201 1.5897,-5.37209 0.21927,-1.48008 0.3289,-3.01494 0.9319,-4.54984 0.603,-1.53489 1.69933,-3.06975 3.39869,-4.65947 1.69936,-1.58971 4.00164,-3.2342 6.35881,-4.54982 2.35716,-1.31562 4.76907,-2.30232 5.86541,-3.23422 1.09635,-0.9319 0.87708,-1.80896 0.76745,-2.79568 -0.10964,-0.98672 -0.10964,-2.08305 0.10963,-3.34386 0.21928,-1.26081 0.65781,-2.68603 1.31563,-4.38538 0.65781,-1.69936 1.53487,-3.67275 2.30232,-5.15282 0.76745,-1.48008 1.42524,-2.46677 0.93189,-2.46677 z"
             id="path3"
             transform="matrix(0.92807405,-0.37972375,0.35495024,0.86752568,-130.46081,128.25369)" /></g><g
           id="g6"
           transform="matrix(-0.8506341,0,0,1,200.33978,0.73187755)"
           style="fill:#1a1a1a"><path
             style="opacity:0.929368;fill:#1a1a1a;stroke:#000000;stroke-width:0;stroke-linecap:round;stroke-linejoin:bevel;paint-order:markers fill stroke"
             d="m 134.68604,130.08139 c -3.45348,-1.37043 -9.37375,-3.23421 -13.5947,-4.27574 -4.22096,-1.04153 -6.7425,-1.2608 -10.47012,-0.76743 -3.72763,0.49336 -8.66109,1.69932 -12.224233,2.90531 -3.563144,1.20599 -5.755793,2.41195 -8.003324,3.89204 -2.247531,1.48008 -4.549812,3.2342 -6.029885,4.65946 -1.480073,1.42526 -2.137866,2.52158 -1.315584,2.30229 0.822282,-0.21928 3.124562,-1.75413 4.933546,-2.52157 1.808984,-0.76744 3.124572,-0.76744 4.549836,-0.71262 1.425264,0.0548 2.960117,0.16445 4.440197,0.38372 1.480081,0.21927 2.905302,0.54817 4.714297,1.20598 1.80899,0.65782 4.00164,1.64451 5.64617,2.35714 1.64452,0.71263 2.74085,1.15116 4.22093,1.64452 1.48009,0.49336 3.34384,1.04153 5.31728,1.42525 1.97344,0.38372 4.05646,0.60298 6.68772,0.38371 2.63126,-0.21928 5.8106,-0.87707 8.22258,-1.58971 2.41197,-0.71263 4.05646,-1.48006 5.48172,-2.19269 1.42526,-0.71263 2.63122,-1.37042 3.34384,-2.02824 0.71263,-0.65781 0.93189,-1.3156 0.76743,-1.97341 -0.16445,-0.65782 -0.71262,-1.31561 -1.48007,-2.08306 -0.76745,-0.76745 -1.75414,-1.64452 -5.20763,-3.01495 z"
             id="path4"
             transform="translate(-52.953493,19.076407)" /><path
             style="opacity:0.929368;fill:#1a1a1a;stroke:#000000;stroke-width:0;stroke-linecap:round;stroke-linejoin:bevel;paint-order:markers fill stroke"
             d="m 166.91861,194.93023 c 0.27408,0.21927 -0.603,-0.98671 -1.26081,-2.24752 -0.65781,-1.26081 -1.09634,-2.5764 -1.20597,-3.89203 -0.10964,-1.31563 0.10963,-2.63121 0.71263,-4.44021 0.603,-1.80899 1.58969,-4.11127 2.57641,-6.24917 0.98672,-2.13789 1.97341,-4.11127 2.52158,-5.42689 0.54818,-1.31562 0.65781,-1.97342 0.49336,-2.52159 -0.16446,-0.54818 -0.60299,-0.98671 -1.26081,-1.53489 -0.65781,-0.54818 -1.53487,-1.20597 -2.30232,-1.86379 -0.76745,-0.65781 -1.42524,-1.31561 -2.13787,-2.13787 -0.71263,-0.82227 -1.48006,-1.80896 -2.13787,-2.90532 -0.65782,-1.09636 -1.20598,-2.30231 -1.64452,-3.56313 -0.43854,-1.26081 -0.76744,-2.57639 -0.98671,-4.22093 -0.21927,-1.64454 -0.3289,-3.61792 -0.60299,-5.701 -0.2741,-2.08308 -0.71262,-4.27573 -1.20598,-6.68771 -0.49336,-2.41199 -1.04152,-5.04316 -1.5897,-8.2226 -0.54818,-3.17944 -1.09635,-6.90694 -2.02825,-10.68937 -0.93191,-3.78243 -2.2475,-7.61957 -3.89203,-11.01827 -1.64454,-3.3987 -3.61792,-6.35877 -5.86546,-9.26411 -2.24753,-2.90535 -4.76907,-5.755789 -7.72924,-9.154501 -2.96017,-3.398712 -6.35877,-7.345476 -9.26411,-10.524903 -2.90534,-3.179426 -5.31725,-5.591336 -8.88042,-8.441868 -3.56317,-2.850532 -8.27737,-6.139506 -12.33388,-9.318937 -4.05651,-3.179432 -7.455112,-6.249137 -10.579726,-8.935206 -3.124613,-2.686069 -5.975054,-4.988349 -9.318946,-7.838881 -3.343891,-2.850532 -7.181025,-6.249136 -10.744181,-8.880384 -3.563155,-2.631248 -6.852126,-4.494999 -9.64783,-6.249168 -2.795704,-1.754169 -5.097984,-3.398654 -5.152779,-2.357088 -0.05479,1.041566 2.137852,4.769065 3.946836,8.38704 1.808984,3.617975 3.234205,7.126213 4.769105,10.963463 1.5349,3.837251 3.179386,8.00328 4.49501,12.443526 1.315624,4.440247 2.302315,9.154439 3.014944,14.636228 0.712629,5.48179 1.151158,11.730836 1.425246,15.951788 0.274087,4.220952 0.383719,6.413599 0.602992,9.483401 0.219272,3.06981 0.548169,7.01658 0.931894,10.36046 0.383726,3.34388 0.822257,6.08469 1.58971,8.82558 0.767453,2.74089 1.863776,5.4817 3.014951,8.05813 1.151175,2.57644 2.35713,4.98835 4.056487,7.50997 1.699357,2.52162 3.892005,5.1528 6.961811,7.94851 3.069806,2.79571 7.016576,5.75579 11.018276,8.44186 4.0017,2.68607 8.0581,5.09798 11.01825,6.79733 2.96015,1.69934 4.8239,2.68603 7.29071,3.8372 2.4668,1.15118 5.53651,2.46677 8.2774,3.7824 2.74089,1.31563 5.1528,2.63122 7.45515,4.05648 2.30235,1.42527 4.49499,2.96012 6.0847,4.1661 1.58971,1.20599 2.5764,2.08305 3.23422,3.23423 0.65781,1.15118 0.98671,2.5764 1.15116,3.89202 0.16445,1.31563 0.16445,2.52159 1.09636,2.90531 0.93191,0.38371 2.79566,-0.0548 4.27574,-0.10963 1.48008,-0.0548 2.5764,0.27408 3.61794,1.20598 1.04154,0.93191 2.02823,2.46677 3.23422,4.05649 1.206,1.58971 2.63122,3.2342 2.90531,3.45347 z"
             id="path5"
             transform="matrix(0.8586676,0,0,0.83618569,-51.175702,-14.767704)" /><path
             style="opacity:0.929368;fill:#1a1a1a;stroke:#000000;stroke-width:0;stroke-linecap:round;stroke-linejoin:bevel;paint-order:markers fill stroke"
             d="m 195.20432,121.69435 c -0.49336,0 -2.13788,0.98671 -3.78242,1.91861 -1.64453,0.93191 -3.28901,1.80896 -5.81064,2.35714 -2.52163,0.54817 -5.92023,0.76744 -8.22257,1.69935 -2.30234,0.93191 -3.50829,2.5764 -4.54983,3.78238 -1.04154,1.20599 -1.9186,1.97342 -3.39868,2.57642 -1.48009,0.60299 -3.56311,1.04152 -5.3721,1.09633 -1.80898,0.0548 -3.34383,-0.27408 -5.37209,-0.0548 -2.02827,0.21928 -4.54981,0.98671 -7.01661,1.97343 -2.46681,0.98672 -4.87872,2.19268 -8.7708,3.67276 -3.89208,1.48009 -9.26406,3.2342 -15.18439,5.81065 -5.92033,2.57645 -12.38864,5.97505 -17.04814,8.71593 -4.6595,2.74089 -7.50994,4.8239 -15.294119,13.92373 -7.78418,9.09983 -20.501534,25.21579 -19.459858,29.76555 1.041676,4.54977 15.842047,-2.46671 23.626107,-5.97501 7.78406,-3.50831 8.55149,-3.50831 9.26412,-3.45349 0.71263,0.0548 1.37042,0.16445 2.08305,0.32891 0.71264,0.16445 1.48006,0.38371 2.57642,0.60298 1.09636,0.21927 2.52158,0.43854 4.16612,0.54817 1.64454,0.10964 3.50829,0.10964 7.12628,-0.82227 3.618,-0.93191 8.98998,-2.79566 12.44348,-4.27574 3.45351,-1.48008 4.98836,-2.5764 6.68771,-3.72758 1.69936,-1.15117 3.56311,-2.35713 5.31728,-3.5083 1.75417,-1.15118 3.39865,-2.2475 4.65946,-3.28904 1.26081,-1.04154 2.13787,-2.02823 2.79568,-2.8505 0.65781,-0.82226 1.09634,-1.48005 1.69934,-2.35714 0.603,-0.87709 1.37042,-1.97341 2.30233,-3.1794 0.9319,-1.206 2.02823,-2.52159 1.9734,-0.65775 -0.0548,1.86384 -1.26079,6.90693 -0.71259,8.33216 0.54819,1.42522 2.85047,-0.76742 4.87873,-3.61796 2.02825,-2.85053 3.78237,-6.35876 4.8239,-8.82556 1.04153,-2.46679 1.37043,-3.89201 1.5897,-5.37209 0.21927,-1.48008 0.3289,-3.01494 0.9319,-4.54984 0.603,-1.53489 1.69933,-3.06975 3.39869,-4.65947 1.69936,-1.58971 4.00164,-3.2342 6.35881,-4.54982 2.35716,-1.31562 4.76907,-2.30232 5.86541,-3.23422 1.09635,-0.9319 0.87708,-1.80896 0.76745,-2.79568 -0.10964,-0.98672 -0.10964,-2.08305 0.10963,-3.34386 0.21928,-1.26081 0.65781,-2.68603 1.31563,-4.38538 0.65781,-1.69936 1.53487,-3.67275 2.30232,-5.15282 0.76745,-1.48008 1.42524,-2.46677 0.93189,-2.46677 z"
             id="path6"
             transform="matrix(0.92807405,-0.37972375,0.35495024,0.86752568,-130.46081,128.25369)" /></g></g><text
         xml:space="preserve"
         style="font-style:normal;font-variant:normal;font-weight:normal;font-stretch:normal;font-size:3.175px;font-family:'Arial Hebrew';-inkscape-font-specification:'Arial Hebrew, Normal';font-variant-ligatures:normal;font-variant-caps:normal;font-variant-numeric:normal;font-variant-east-asian:normal;text-align:start;writing-mode:lr-tb;direction:ltr;text-anchor:start;white-space:pre;inline-size:10.363;opacity:0.929368;fill:#000000;stroke:#000000;stroke-width:0;stroke-linecap:round;stroke-linejoin:bevel;paint-order:markers fill stroke"
         x="85.731796"
         y="153.96484"
         id="text1"
         transform="matrix(7.2344121,0,0,7.3731788,-535.38044,-971.99957)"><tspan
           x="85.731796"
           y="153.96484"
           id="tspan2">Willow</tspan></text></g></g></svg>
